<svg width="360" height="101" viewBox="0 0 360 101" fill="none" xmlns="http://www.w3.org/2000/svg">
<path fill="black" transform="translate(116.000 44.8) scale(0.046 -0.046)" d="M95.404296875 595V394L235.22946166992188 302.6110076904297L226.0810546875 294.4443359375C210.994140625 280.9755859375 196.134765625 267.2470703125 181.755859375 253.0244140625C157.3173828125 228.8515625 133.4296875 204.052734375 111.6455078125 177.4638671875C89.861328125 150.875 70.4267578125 121.919921875 58.3037109375 89.755859375C47.27734375 60.5029296875 42.6220703125 28.7119140625 46.169921875 -2.3486328125C49.7177734375 -33.408203125 61.40234375 -63.44140625 79.404296875 -89.0C102.11328125 -121.2412109375 134.5126953125 -146.125 170.5068359375 -162.2392578125C206.5009765625 -178.3525390625 245.978515625 -186.091796875 285.404296875 -187.0C347.2744140625 -188.42578125 409.853515625 -173.462890625 463.0537109375 -141.84375C516.2529296875 -110.2255859375 559.2412109375 -60.2802734375 578.0146484375 -1.3095703125C579.4296875 3.1376953125 580.712890625 7.626953125 581.861328125 12.150390625L554.94140625 19.849609375C553.9130859375 15.2958984375 552.6279296875 10.798828125 551.0947265625 6.388671875C542.83984375 -17.353515625 527.177734375 -38.25 507.55078125 -53.955078125C487.923828125 -69.6591796875 464.6220703125 -80.3134765625 440.529296875 -87.482421875C392.34375 -101.8203125 341.5771484375 -104.826171875 291.404296875 -108.0C257.3857421875 -110.15234375 222.9580078125 -111.59765625 189.4326171875 -105.4345703125C155.908203125 -99.271484375 123.1650390625 -83.9541015625 101.302734375 -57.8017578125C85.8369140625 -39.3017578125 76.3232421875 -16.0224609375 73.81640625 7.9599609375C72.57687377929688 19.823379516601562 72.99443054199219 31.789779663085938 74.76591491699219 43.584136962890625C77.5462646484375 49.21379089355469 81.84843444824219 54.07359313964844 86.8837890625 57.85546875C92.8583984375 62.3427734375 99.7939453125 65.41015625 106.904296875 67.7080078125C133.9345703125 76.4462890625 162.6435546875 79.21875 191.0400390625 80.0C214.646484375 80.6494140625 238.3544921875 77.470703125 260.904296875 70.4580078125C304.8984375 56.7783203125 344.5634765625 30.2431640625 375.5712890625 -3.8330078125L649.7373046875 169.0V420.0C626.75390625 438.9931640625 601.9345703125 455.7626953125 575.7373046875 470.0C551.9322204589844 482.93719482421875 526.9896240234375 493.77947998046875 501.2945251464844 502.37086486816406C534.4549713134766 531.5384063720703 567.5282135009766 560.9219512939453 594.76171875 595.5732421875C629.0859375 639.2470703125 655.109375 690.3779296875 665.1064453125 745.01953125C667.6337890625 758.8369140625 668.365234375 772.9150390625 668.404296875 786.9609375L668.443359375 800.9609375L655.4047241210938 800.9977722167969L655.404296875 801.0H654.615234375L640.44140625 801.0400390625L640.4412994384766 801.0H640.404296875C639.22265625 786.630859375 634.8544921875 772.5380859375 627.7373046875 760.0C613.302734375 734.5673828125 587.6064453125 716.4345703125 559.4306640625 708.609375C531.25390625 700.783203125 500.9951171875 702.47265625 472.7373046875 710.0C434.2744140625 720.24609375 398.818359375 740.8330078125 369.5712890625 767.8330078125ZM432.70703125 154.97384643554688C415.3064270019531 164.23446655273438 397.2733612060547 172.2930908203125 378.7373046875 179.0C327.7158203125 197.4609375 271.982421875 205.4384765625 218.7373046875 195.0C187.91378784179688 188.9574432373047 158.25125122070312 176.5457305908203 132.60128784179688 158.49362182617188C133.4320526123047 159.51673889160156 134.26625061035156 160.53640747070312 135.103515625 161.552734375C155.7802734375 186.6513671875 178.2978515625 210.18359375 201.4013671875 233.06640625C215.4482421875 246.9775390625 229.9794921875 260.390625 244.7275390625 273.5556640625L397.0041961669922 409.4936218261719L432.70703125 392.04486083984375ZM460.70703125 138.700927734375V378.3606719970703L518.7373046875 350.00001525878906V120.00001525878906L499.7373046875 111.00001525878906C487.23390197753906 120.9146728515625 474.200927734375 130.17478942871094 460.70703125 138.70094299316406ZM281.70703125 630.5219573974609V429.8601989746094L226.404296875 468.00001525878906V644.0000152587891L245.404296875 653.0000152587891C257.1334991455078 644.9336853027344 269.25160217285156 637.42138671875 281.70703125 630.5219573974609ZM309.70703125 616.3208465576172C324.9933166503906 609.2635803222656 340.6985168457031 603.1242065429688 356.7373046875 598.0000152587891C408.3125 581.5214996337891 464.498046875 575.7685699462891 516.7373046875 590.0000152587891C537.4892425537109 595.6535797119141 557.3995819091797 604.6207122802734 575.3592529296875 616.4560546875C574.5680999755859 615.4231872558594 573.7722015380859 614.3945159912109 572.9716796875 613.3701324462891C540.29296875 571.5527496337891 498.6728515625 537.7832183837891 459.0810546875 502.44044494628906L335.9046936035156 392.4824981689453L309.70703125 410.5498504638672Z"/>
<path fill="black" transform="translate(146.820 44.8) scale(0.046 -0.046)" d="M216.326171875 119.6328125V766.7529296875H197.15234375L34.173828125 651.7099609375L34.17578125 637.330078125C42.12890625 634.9091796875 49.921875 631.88671875 57.232421875 627.9306640625C64.0712890625 624.2294921875 70.521484375 619.5048828125 75.021484375 613.1640625C77.9130859375 609.0888671875 79.919921875 604.4033203125 80.97265625 599.517578125C82.0244140625 594.6328125 82.109375 589.59765625 82.109375 584.6005859375V129.220703125L15.0 86.0791015625L29.380859375 66.9052734375L67.728515625 90.8720703125L173.185546875 -0.203125L297.8154296875 86.0791015625L283.435546875 105.2529296875L254.673828125 81.2861328125Z"/>
<path fill="black" transform="translate(160.022 44.8) scale(0.046 -0.046)" d="M478.7294921875 110.029296875 435.59375 81.2900390625 387.65625 129.220703125V381.3994598388672L439.8349609375 423.71484375L422.1982421875 445.462890625L381.8325500488281 412.7268524169922L234.263671875 507.9052734375L124.013671875 450.3828125C112.3359375 444.2900390625 100.7568359375 437.7744140625 90.8427734375 429.1025390625C81.5732421875 420.9951171875 73.7060546875 411.17578125 68.5029296875 400.013671875C63.2998046875 388.8515625 60.865234375 376.3876953125 61.6982421875 364.1005859375C62.6005859375 350.810546875 67.2841796875 337.8974609375 74.4541015625 326.669921875C88.0478515625 305.3837890625 109.7294921875 290.408203125 132.5458984375 279.5771484375C137.447021484375 277.25025939941406 142.41673278808594 275.0858154296875 147.43931579589844 273.0498962402344C123.96774291992188 260.8173065185547 101.69770812988281 246.18711853027344 81.8349609375 228.712890625C67.6767578125 216.255859375 54.7783203125 202.177734375 45.0458984375 186.0244140625C35.314453125 169.87109375 28.9609375 151.537109375 27.8349609375 132.712890625C26.1015625 103.7275390625 37.22265625 74.7587890625 55.6689453125 52.3330078125C81.9189453125 20.4189453125 121.3876953125 0.337890625 162.3642578125 -5.0L267.9017333984375 71.73417663574219L344.2763671875 -4.775390625L483.4677734375 90.8115234375ZM263.0257263183594 265.50437927246094C244.9255828857422 269.854736328125 226.94973754882812 274.72564697265625 209.173828125 280.25001525878906C190.166015625 286.15724182128906 171.314453125 292.73927307128906 153.34375 301.29981994628906C135.373046875 309.85939025878906 117.9013671875 320.56153869628906 105.3369140625 336.00001525878906C96.650390625 346.67384338378906 90.7275390625 359.92872619628906 90.458984375 373.68849182128906C90.2666015625 383.58790588378906 92.9755859375 393.47071838378906 97.83984375 402.09571838378906C102.703125 410.72071838378906 109.591796875 418.11915588378906 117.4658203125 424.12306213378906C123.86328125 429.00099182128906 130.93359375 432.99024963378906 138.3935546875 436.00001525878906L263.0263671875 359.30763244628906C263.0263671875 328.0398864746094 263.0257263183594 296.7721405029297 263.0257263183594 265.50439453125ZM263.0255126953125 236.5682830810547C263.0255126953125 185.83241271972656 263.02447509765625 135.09654235839844 263.02447509765625 84.36067199707031C252.3004150390625 80.97352600097656 240.73294067382812 80.28398132324219 229.6689453125 82.33302307128906C215.4931640625 84.95899963378906 202.3212890625 92.00294494628906 191.498046875 101.52638244628906C180.673828125 111.04884338378906 172.0576171875 122.91407775878906 165.3349609375 135.66700744628906C151.091796875 162.68556213378906 144.4921875 194.17579650878906 149.3349609375 224.33302307128906C151.72573852539062 239.22164916992188 157.01329040527344 253.6497802734375 164.88543701171875 266.5078887939453C177.74229431152344 262.0258026123047 190.8189239501953 258.1082305908203 203.8671875 254.21876525878906C223.58837890625 248.34080505371094 243.33851623535156 242.5586700439453 263.0255126953125 236.5682830810547Z"/>
<path fill="black" transform="translate(181.734 44.8) scale(0.046 -0.046)" d="M245.826171875 123C265.029296875 111.791015625 287.0966796875 105.53515625 309.326171875 105.0L366.9931640625 146.6669921875L379.9931640625 129.1669921875L232.826171875 0.0H218.826171875L67.826171875 102.8779296875V401.8779296875L274.326171875 517.0L380.326171875 432.0L285.326171875 360.0L196.326171875 434.0V174.0C207.7939453125 152.93359375 225.111328125 135.0908203125 245.826171875 123.0Z"/>
<path fill="black" transform="translate(199.766 44.8) scale(0.046 -0.046)" d="M216.326171875 119.6328125V766.7529296875H197.15234375L34.173828125 651.7099609375L34.17578125 637.330078125C42.12890625 634.9091796875 49.921875 631.88671875 57.232421875 627.9306640625C64.0712890625 624.2294921875 70.521484375 619.5048828125 75.021484375 613.1640625C77.9130859375 609.0888671875 79.919921875 604.4033203125 80.97265625 599.517578125C82.0244140625 594.6328125 82.109375 589.59765625 82.109375 584.6005859375V129.220703125L15.0 86.0791015625L29.380859375 66.9052734375L67.728515625 90.8720703125L173.185546875 -0.203125L297.8154296875 86.0791015625L283.435546875 105.2529296875L254.673828125 81.2861328125ZM566.4248046875 114.83984375 523.2861328125 86.080078125 326.75 378.4814453125 336.3359375 397.650390625C350.4697265625 384.5908203125 367.58203125 374.7431640625 386.0244140625 369.25C401.4111328125 364.6669921875 417.7529296875 363.140625 433.6669921875 365.26171875C449.58203125 367.3828125 464.990234375 373.2314453125 478.2744140625 382.25C492.2861328125 391.7626953125 503.818359375 404.6728515625 512.73046875 419.0751953125C521.642578125 433.4765625 528.095703125 449.296875 533.0244140625 465.5C537.2412109375 479.365234375 540.353515625 493.5615234375 542.4560546875 507.900390625H523.2861328125C517.1669921875 496.703125 508.0849609375 487.142578125 497.2177734375 480.4560546875C486.349609375 473.76953125 473.7216796875 469.97265625 460.9677734375 469.5576171875C447.416015625 469.1171875 433.759765625 472.5068359375 421.9873046875 479.232421875C410.2138671875 485.958984375 400.3583984375 496.001953125 393.8564453125 507.900390625L384.271484375 507.9052734375L235.6748046875 277.818359375L432.20703125 -9.7900390625L585.5986328125 90.8720703125Z"/>
<path fill="black" transform="translate(225.388 44.8) scale(0.046 -0.046)" d="M27.4375 64.5087890625 71.69805908203125 100.40278625488281 220.0673828125 -9.7900390625 426.1865234375 157.9814453125 411.806640625 181.94921875 301.556640625 95.666015625 181.71875 177.1552734375V220.29185485839844L397.42578125 354.5146484375V359.3076171875L296.7626953125 512.69921875L57.0888671875 388.068359375V124.60586547851562L9.80078125 86.255859375ZM181.71875 244.67771911621094V425.2099609375L200.8935546875 436.0029296875L287.17578125 311.3720703125Z"/>
<path fill="black" transform="translate(245.214 44.8) scale(0.046 -0.046)" d="M327.375 125.333984375 273.3916015625 88.5 233.9130859375 119.6328125V414.55848693847656C248.09996032714844 400.874267578125 264.5630645751953 389.5646667480469 282.724609375 381.99998474121094C294.560546875 377.07029724121094 307.185546875 373.84959411621094 319.9970703125 373.36424255371094C332.8095703125 372.87889099121094 345.771484375 375.24900817871094 357.3916015625 380.66697692871094C372.1328125 387.53807067871094 384.3447265625 399.21873474121094 393.166015625 412.88279724121094C401.98828125 426.54685974121094 407.7119140625 441.99412536621094 412.05859375 457.66697692871094C417.0830078125 475.78318786621094 420.4345703125 494.33982849121094 422.7255859375 512.9999847412109H392.8916015625C387.8974609375 505.20896911621094 380.8505859375 498.74705505371094 372.65625 494.44627380371094C364.4619140625 490.14646911621094 355.140625 488.01658630371094 345.8916015625 488.33299255371094C328.6162109375 488.92381286621094 311.88671875 498.44725036621094 302.55859375 512.9999847412109H292.2255859375L222.51541137695312 433.8785400390625L149.2177734375 512.6992034912109L15.0 421.62205505371094L29.380859375 402.44920349121094L67.728515625 426.41600036621094L101.2822265625 383.27537536621094V119.63279724121094L38.9677734375 76.49217224121094L53.34765625 57.31834411621094L86.90234375 81.28611755371094L196.771484375 -4.9970855712890625L346.05859375 102.99998474121094Z"/>
<path fill="black" transform="translate(116.000 93) scale(0.046 -0.046)" d="M584.2744140625 422ZM146.94140625 278.8330078125 151.94140625 292.8330078125C144.4091796875 297.4931640625 139.4169921875 305.9892578125 138.94140625 314.8330078125C138.640625 320.4375 140.07421875 326.1064453125 142.90625 330.9521484375C145.73828125 335.7978515625 149.93359375 339.7978515625 154.78125 342.6259765625C159.62890625 345.455078125 165.0947265625 347.12109375 170.6435546875 347.9619140625C176.193359375 348.802734375 181.8291015625 348.8330078125 187.44140625 348.8330078125C191.015625 348.8330078125 194.58984375 348.8336639404297 198.1640625 348.8336639404297V184.72964477539062C180.63645935058594 184.82443237304688 163.12109375 182.48727416992188 146.3623046875 177.3974609375C119.515625 169.2431640625 94.720703125 153.796875 76.6513671875 132.3330078125C57.1591796875 109.1806640625 45.91796875 79.1142578125 46.0 48.849609375C46.0830078125 18.5849609375 57.458984375 -11.494140625 77.318359375 -34.3330078125C91.6845703125 -50.8564453125 110.3427734375 -63.609375 130.9423828125 -71.0302734375C151.5419921875 -78.451171875 174.0419921875 -80.525390625 195.6513671875 -77.0L200.318359375 -58.3330078125C188.4384765625 -59.544921875 176.220703125 -57.3349609375 165.54296875 -51.98828125C154.8662109375 -46.640625 145.716796875 -38.142578125 139.984375 -27.6669921875C136.4111328125 -21.13671875 134.18359375 -13.8486328125 133.7138671875 -6.419921875C133.2451171875 1.0087890625 134.56640625 8.5595703125 137.6513671875 15.3330078125C140.7568359375 22.1533203125 145.6337890625 28.1396484375 151.6142578125 32.6552734375C157.59375 37.169921875 164.6357421875 40.21484375 171.9638671875 41.7783203125C186.62109375 44.904296875 202.05078125 42.1845703125 215.984375 36.6669921875C235.8623046875 28.7939453125 253.4541015625 15.6826171875 267.984375 0.0L396.8828125 143.599609375L382.50390625 157.9814453125L348.96875 119.6494140625C316.759765625 151.9111328125 274.619140625 174.421875 229.6640625 181.9853515625C228.49929809570312 182.1813201904297 227.3325653076172 182.3671112060547 226.1640625 182.54261779785156V580.8916015625C228.95433044433594 576.4720916748047 231.66668701171875 572.00341796875 234.3125 567.5L268.8125 508.7763671875L569.3466796875 0.0H607.1630859375V588.1250762939453C622.8076324462891 589.24658203125 638.3070526123047 592.4333648681641 652.9990234375 597.8993988037109C671.408203125 604.7470550537109 688.5380859375 615.2949066162109 702.2744140625 629.3329925537109C718.39453125 645.8076019287109 729.6103515625 667.1533050537109 733.3447265625 689.8974456787109C737.0791015625 712.6415863037109 733.28125 736.5712738037109 722.607421875 756.9999847412109L708.94140625 757.3329925537109C707.744140625 745.5624847412109 702.7666015625 734.2118988037109 694.951171875 725.3281097412109C687.134765625 716.4452972412109 676.548828125 710.0995941162109 665.107421875 707.0829925537109C652.8232421875 703.8447113037109 639.6904296875 704.3993988037109 627.44140625 707.7734222412109C615.193359375 711.1464691162109 603.7724609375 717.2128753662109 593.607421875 724.8329925537109C584.876953125 731.3798675537109 577.0302734375 739.0966644287109 570.2744140625 747.6669769287109L550.607421875 747.9999847412109L426.0263671875 604.0497894287109L440.4052734375 589.6689300537109L478.607421875 632.3329925537109C491.751953125 619.8671722412109 507.0546875 609.6933441162109 523.607421875 602.3329925537109C542.0629272460938 594.127685546875 562.0082092285156 589.4048919677734 582.1707000732422 588.0636749267578C584.0964508056641 532.733642578125 584.7978057861328 477.3609313964844 584.2744140625 421.99998474121094C583.7587890625 367.46287536621094 582.0537109375 312.93748474121094 579.162109375 258.47459411621094L338.748046875 660.9765472412109C325.0849609375 679.6718597412109 313.931640625 700.2099456787109 299.0810546875 717.9765472412109C285.6650390625 734.0292816162109 267.64453125 746.1777191162109 247.748046875 752.6425628662109C222.0986328125 760.9775238037109 193.5576171875 759.6816253662109 168.5107421875 749.6777191162109C143.46484375 739.6728363037109 122.0078125 721.2021331787109 107.7490234375 698.3095550537109C89.5322265625 669.0654144287109 83.1865234375 632.7099456787109 90.1240234375 598.9618988037109L109.3017578125 594.1835784912109C110.6875 600.5722503662109 112.4814453125 606.8759613037109 114.7685546875 612.9999847412109C117.5478515625 620.4433441162109 121.087890625 627.6992034912109 126.173828125 633.8036956787109C131.259765625 639.9081878662109 138.064453125 644.7216644287109 145.7685546875 646.6669769287109C154.619140625 648.9023284912109 164.193359375 647.1533050537109 172.2548828125 642.8710784912109C180.3173828125 638.5898284912109 187.01171875 632.1327972412109 193.1015625 625.3329925537109C194.81727600097656 623.4172973632812 196.5043182373047 621.4773101806641 198.1640625 619.5147552490234V484.23008728027344C186.01080322265625 484.35633850097656 173.8390350341797 482.7474670410156 162.150390625 479.41600036621094C142.9482421875 473.94432067871094 125.0546875 463.82713317871094 110.6513671875 449.99998474121094C87.3408203125 427.62107849121094 73.69140625 394.84471130371094 76.6513671875 362.66697692871094C78.4306640625 343.32322692871094 86.1015625 324.52928161621094 98.552734375 309.62010192871094C111.00390625 294.71092224121094 128.158203125 283.78318786621094 146.94140625 278.83299255371094Z"/>
<path fill="black" transform="translate(147.878 93) scale(0.046 -0.046)" d="M27.4375 64.5087890625 71.69805908203125 100.40278625488281 220.0673828125 -9.7900390625 426.1865234375 157.9814453125 411.806640625 181.94921875 301.556640625 95.666015625 181.71875 177.1552734375V220.29185485839844L397.42578125 354.5146484375V359.3076171875L296.7626953125 512.69921875L57.0888671875 388.068359375V124.60586547851562L9.80078125 86.255859375ZM181.71875 244.67771911621094V425.2099609375L200.8935546875 436.0029296875L287.17578125 311.3720703125Z"/>
<path fill="black" transform="translate(167.704 93) scale(0.046 -0.046)" d="M378.3916015625 513.25 273.6416015625 426.5 317.9345703125 386.275390625V81.84275817871094L299.0166015625 70.75L219.9609375 122.5859375L220.1630859375 332.5C220.185546875 355.4091796875 220.5029296875 378.5771484375 215.3662109375 400.9033203125C210.23046875 423.228515625 198.546875 444.0615234375 181.62109375 459.5C171.59765625 468.642578125 160.103515625 475.990234375 148.7021484375 483.341796875C137.30078125 490.6943359375 125.865234375 498.2958984375 116.7099609375 508.306640625C107.5537109375 518.31640625 100.8974609375 531.0146484375 99.9580078125 544.5478515625C99.017578125 558.08203125 104.1455078125 571.8486328125 113.5068359375 581.6669921875C120.6337890625 589.1396484375 129.8447265625 594.4453125 139.6123046875 597.794921875C140.806640625 598.205078125 142.0107421875 598.5849609375 143.2236328125 598.935546875L138.330078125 618.0C115.466796875 615.9580078125 93.0 609.2724609375 72.8525390625 598.2724609375C52.705078125 587.271484375 34.7119140625 571.89453125 22.173828125 552.6669921875C11.9365234375 536.966796875 5.5830078125 518.490234375 5.681640625 499.7470703125C5.7802734375 481.0048828125 12.6728515625 462.6220703125 23.74609375 447.5C34.685546875 432.560546875 49.1953125 420.6875 62.046875 407.3564453125C74.8984375 394.0263671875 85.71484375 378.3203125 90.74609375 360.5C93.9560546875 349.1298828125 94.9892578125 337.2548828125 95.2734375 325.443359375C95.55859375 313.6318359375 95.330078125 301.814453125 95.330078125 290.0V101.49519348144531L50.3291015625 65.0L67.9658203125 43.2529296875L98.89497375488281 68.33555603027344L213.2109375 -14.162109375L339.1715850830078 55.58222961425781L435.8154296875 -14.162109375L667.9169921875 108.9794921875L668.1006317138672 423.4420166015625L727.1201171875 471.306640625L709.4833984375 493.0546875L666.5209808349609 458.2115936279297L603.7451171875 513.25L498.9951171875 426.5L543.2880859375 386.275390625V83.45526123046875L521.6201171875 70.75L442.5654296875 122.5859375L442.7666015625 394.0830078125L479.8916015625 424.25Z"/>
<path fill="black" transform="translate(200.640 93) scale(0.046 -0.046)" d="M417.7939453125 510H389.5439453125C389.5439453125 509.97021484375 389.5346374511719 509.94041442871094 389.5346374511719 509.91062927246094L389.1689453125 510.0C387.859375 497.8681640625 381.3544921875 486.42578125 371.716796875 478.9423828125C362.7880859375 472.0078125 351.4306640625 468.5029296875 340.126953125 468.3193359375C328.8232421875 468.134765625 317.5947265625 471.0888671875 307.3837890625 475.9423828125C290.6962890625 483.8740234375 276.4853515625 496.69921875 266.126953125 512.0L59.4609375 392.0V252.0L135.09507751464844 192.33456420898438C126.75294494628906 184.63868713378906 118.53094482421875 176.81468200683594 110.47752380371094 168.8154296875C83.47361755371094 141.9912109375 57.02830505371094 112.515625 45.69432067871094 76.1796875C38.00389099121094 51.5263671875 38.25975036621094 24.1181640625 48.41893005371094 0.375C58.57713317871094 -23.3681640625 78.49900817871094 -42.806640625 102.58494567871094 -52.123046875L112.33689880371094 -25.876953125C106.68260192871094 -22.67578125 102.22264099121094 -17.43359375 99.92967224121094 -11.3544921875C97.32322692871094 -4.443359375 97.55662536621094 3.4189453125 100.20310974121094 10.314453125C102.84959411621094 17.2099609375 107.78709411621094 23.1201171875 113.79393005371094 27.4169921875C122.26463317871094 33.4755859375 132.73533630371094 36.408203125 143.14451599121094 36.7421875C153.55369567871094 37.0771484375 163.97557067871094 34.8935546875 173.61131286621094 30.943359375C192.88377380371094 23.0419921875 209.06932067871094 8.146484375 219.29393005371094 -10.0L416.72850036621094 110.0L416.72752380371094 261.0L330.6947784423828 324.7034912109375C341.5246124267578 334.3464813232422 351.9435729980469 344.44810485839844 361.02928161621094 355.7314453125C372.72166442871094 370.251953125 382.28807067871094 386.4248046875 389.99412536621094 403.400390625C405.23826599121094 436.9794921875 414.04393005371094 473.3134765625 417.79393005371094 510.0ZM232.31167602539062 240.06979370117188 287.72850036621094 195.9375 287.73045349121094 65.6669921875C275.16990661621094 93.2919921875 252.87205505371094 116.42578125 225.60643005371094 129.75C205.76853942871094 139.4443359375 183.34764099121094 143.9580078125 161.34178161621094 142.14453125C139.77052307128906 140.36582946777344 118.66285705566406 132.4074249267578 101.62872314453125 119.06137084960938C110.6033935546875 129.66183471679688 120.4739990234375 139.50015258789062 130.44432067871094 149.1845703125C151.76853942871094 169.8984375 173.83299255371094 189.83984375 196.38377380371094 209.2099609375ZM229.81405639648438 274.82733154296875 188.45994567871094 317.0615234375 188.45799255371094 447.3330078125C199.85447692871094 419.033203125 222.64060974121094 395.498046875 250.58201599121094 383.25C270.00779724121094 374.734375 291.77830505371094 371.6083984375 312.80076599121094 374.4189453125C324.8790588378906 376.0342102050781 336.6885223388672 379.6131134033203 347.6519470214844 384.9279022216797C344.78993225097656 380.70912170410156 341.757080078125 376.60740661621094 338.54685974121094 372.64453125C328.19725036621094 359.8671875 315.93162536621094 348.7939453125 303.45701599121094 338.080078125Z"/>
<path fill="black" transform="translate(221.570 93) scale(0.046 -0.046)" d="M327.375 125.333984375 273.3916015625 88.5 233.9130859375 119.6328125V414.55848693847656C248.09996032714844 400.874267578125 264.5630645751953 389.5646667480469 282.724609375 381.99998474121094C294.560546875 377.07029724121094 307.185546875 373.84959411621094 319.9970703125 373.36424255371094C332.8095703125 372.87889099121094 345.771484375 375.24900817871094 357.3916015625 380.66697692871094C372.1328125 387.53807067871094 384.3447265625 399.21873474121094 393.166015625 412.88279724121094C401.98828125 426.54685974121094 407.7119140625 441.99412536621094 412.05859375 457.66697692871094C417.0830078125 475.78318786621094 420.4345703125 494.33982849121094 422.7255859375 512.9999847412109H392.8916015625C387.8974609375 505.20896911621094 380.8505859375 498.74705505371094 372.65625 494.44627380371094C364.4619140625 490.14646911621094 355.140625 488.01658630371094 345.8916015625 488.33299255371094C328.6162109375 488.92381286621094 311.88671875 498.44725036621094 302.55859375 512.9999847412109H292.2255859375L222.51541137695312 433.8785400390625L149.2177734375 512.6992034912109L15.0 421.62205505371094L29.380859375 402.44920349121094L67.728515625 426.41600036621094L101.2822265625 383.27537536621094V119.63279724121094L38.9677734375 76.49217224121094L53.34765625 57.31834411621094L86.90234375 81.28611755371094L196.771484375 -4.9970855712890625L346.05859375 102.99998474121094Z"/>
<path fill="black" transform="translate(239.924 93) scale(0.046 -0.046)" d="M195.615234375 153.1884765625V440.796875L310.6591796875 364.1005859375V76.4921875ZM32.63671875 67.6982421875 74.1380615234375 101.35459899902344C120.88584899902344 67.14448547363281 167.85675048828125 33.774169921875 214.7900390625 -0.2031097412109375L435.2900390625 134.01466369628906V407.24220275878906L291.4853515625 517.4922027587891L66.1923828125 388.06837463378906C66.1923828125 302.36566162109375 66.19059753417969 216.66293334960938 66.19059753417969 130.96022033691406L15.0 89.44532775878906Z"/>
<path fill="black" transform="translate(261.636 93) scale(0.046 -0.046)" d="M195.615234375 153.1884765625V440.796875L310.6591796875 364.1005859375V76.4921875ZM32.63671875 67.6982421875 74.1380615234375 101.35459899902344C120.88584899902344 67.14448547363281 167.85675048828125 33.774169921875 214.7900390625 -0.2031097412109375L435.2900390625 134.01466369628906V407.24220275878906L291.4853515625 517.4922027587891L66.1923828125 388.06837463378906C66.1923828125 302.36566162109375 66.19059753417969 216.66293334960938 66.19059753417969 130.96022033691406L15.0 89.44532775878906Z"/>
<path fill="black" transform="translate(283.348 93) scale(0.046 -0.046)" d="M515.513671875 74.0009765625 463.587890625 120.333984375V387.7952575683594L516.1796875 419.6669921875L585.5439453125 356.5146484375V110.046875L543.5546875 71.666015625L642.654296875 -14.583984375L790.9873046875 81.6689453125L790.32421875 118.3330078125L747.32421875 86.0L700.587890625 133.666015625V384.92247009277344L750.0107421875 425.0029296875L732.3740234375 446.7509765625L699.8069610595703 420.3395233154297L595.95703125 509.9052734375L458.470703125 424.079345703125L358.95703125 509.9052734375L227.5467071533203 427.87229919433594L154.0107421875 509.9052734375L15.0 414.0361328125L29.380859375 394.861328125L67.728515625 418.8291015625L106.0771484375 375.6884765625V110.046875L67.728515625 76.4921875L182.7724609375 -14.583984375L278.6416015625 71.69921875L235.5 110.046875V393.19618225097656L279.1796875 419.6669921875L348.5439453125 356.5146484375V110.046875L306.5546875 71.666015625L405.654296875 -14.583984375Z"/>
<g clip-path="url(#clip0_25_143)">

<path d="M81.8466 76.488L81.7506 76.872C80.9186 77.384 79.8946 78.088 78.6786 78.984C77.5266 79.816 76.2146 80.776 74.7426 81.864C73.7826 82.504 72.5986 83.752 71.1906 85.608L70.7106 85.128L70.6146 85.032L70.4226 84.84L70.2306 84.744L69.9426 84.456L69.8466 84.264C66.3266 80.808 63.3826 78.44 61.0146 77.16L65.1426 72.84V55.08H53.5266V72.84L54.3906 71.88L57.0786 74.184L46.0386 85.128C41.4946 82.248 36.8866 80.808 32.2146 80.808C27.9906 80.808 24.2146 82.024 20.8866 84.456C21.5906 82.152 22.7106 80.168 24.2466 78.504C25.8466 76.84 27.7666 75.432 30.0066 74.28C31.9906 73.384 34.0066 72.712 36.0546 72.264C38.1666 71.752 40.3746 71.496 42.6786 71.496C45.2386 71.496 47.7346 71.88 50.1666 72.648V25.896C49.0786 25.512 48.5346 24.52 48.5346 22.92C48.5346 20.552 49.6866 19.368 51.9906 19.368C52.8866 19.368 53.6546 19.752 54.2946 20.52C54.9986 21.224 55.3506 22.024 55.3506 22.92C55.3506 24.456 54.7426 25.512 53.5266 26.088V45.384H65.1426V30.888C64.9506 30.888 64.8226 30.824 64.7586 30.696H64.8546C64.6626 30.568 64.4066 30.408 64.0866 30.216C63.7666 30.024 63.4466 29.768 63.1266 29.448H63.2226C63.0946 29.384 62.9026 29.224 62.6466 28.968L61.0146 29.928L59.4786 27.336L70.2306 20.04C73.6226 24.008 76.5986 25.992 79.1586 25.992H79.3506C79.4786 25.928 79.9266 25.768 80.6946 25.512C80.9506 25.384 81.3666 25.32 81.9426 25.32C80.9186 27.24 79.7666 28.744 78.4866 29.832C78.2306 29.96 77.9746 30.12 77.7186 30.312C77.4626 30.44 77.1746 30.632 76.8546 30.888H76.9506C76.7586 31.08 76.6626 31.176 76.6626 31.176L75.9906 31.368V72.84L78.2946 75.24L80.2146 74.088L81.8466 76.488ZM49.0146 28.296L48.1506 29.16V29.352C47.5106 29.992 47.1906 31.592 47.1906 34.152V61.128C47.1906 62.152 46.7106 63.528 45.7506 65.256C45.2386 66.152 44.5666 66.984 43.7346 67.752C42.9666 68.52 42.1026 69.192 41.1426 69.768C40.1826 70.344 39.1586 70.792 38.0706 71.112C37.0466 71.432 36.0226 71.592 34.9986 71.592H34.5186L34.4226 71.496H33.4626L34.4226 70.536C34.5506 70.472 34.7746 70.28 35.0946 69.96L35.7666 68.616V68.712C35.7666 68.712 35.8626 68.52 36.0546 68.136C36.3106 67.688 36.5026 67.336 36.6306 67.08C36.6306 66.888 36.6626 66.76 36.7266 66.696V54.696H33.4626L32.5026 55.08C32.4386 55.08 32.3746 55.112 32.3106 55.176C32.2466 55.176 32.1826 55.176 32.1186 55.176C31.2866 55.752 30.8706 56.744 30.8706 58.152L30.9666 58.248V59.592C30.4546 59.4 29.9426 59.112 29.4306 58.728C28.9826 58.28 28.5346 57.8 28.0866 57.288C27.7026 56.776 27.3506 56.264 27.0306 55.752C26.7746 55.24 26.6466 54.76 26.6466 54.312C26.5186 53.928 26.4546 53.416 26.4546 52.776C26.4546 51.88 26.6146 50.984 26.9346 50.088C27.3186 49.192 27.8306 48.392 28.4706 47.688C29.1106 46.92 29.8146 46.312 30.5826 45.864C31.3506 45.416 32.1826 45.192 33.0786 45.192L36.7266 45V36.84C37.7506 34.216 39.7986 32.008 42.8706 30.216C44.8546 28.936 46.9026 28.296 49.0146 28.296ZM47.8626 23.304L48.1506 23.88C46.8706 25.8 45.2066 27.464 43.1586 28.872C41.1746 30.216 39.1906 30.92 37.2066 30.984C37.0786 31.048 36.6306 31.08 35.8626 31.08L35.7666 31.176H35.4786C34.3266 31.176 32.5026 30.728 30.0066 29.832C27.6386 28.936 26.0386 28.488 25.2066 28.488L25.0146 28.584H24.3426C24.2786 28.648 24.0866 28.68 23.7666 28.68C23.0626 28.744 22.4226 29.032 21.8466 29.544C21.2706 29.992 20.6626 30.76 20.0226 31.848V30.504L19.9266 30.408V30.024L19.8306 29.832V29.352C19.8306 26.728 20.8226 24.584 22.8066 22.92C24.8546 21.256 27.2546 20.424 30.0066 20.424C32.7586 20.424 35.3506 21 37.7826 22.152C38.0386 22.28 38.2306 22.344 38.3586 22.344H38.2626C38.5826 22.472 38.8066 22.568 38.9346 22.632C39.1266 22.696 39.2866 22.76 39.4146 22.824H39.3186C39.5746 22.952 39.8306 23.048 40.0866 23.112C40.3426 23.176 41.0146 23.4 42.1026 23.784H42.2946C42.6786 23.848 43.0306 23.912 43.3506 23.976C43.6706 23.976 43.9586 23.976 44.2146 23.976C45.6866 23.976 46.6786 23.816 47.1906 23.496C47.2546 23.432 47.3826 23.4 47.5746 23.4C47.6386 23.4 47.6706 23.4 47.6706 23.4C47.7346 23.336 47.7986 23.304 47.8626 23.304Z" fill="black"/>
</g>
<rect x="2" y="2" width="97" height="97" rx="28" stroke="black" stroke-width="4"/>
<defs>
<clipPath id="clip0_25_143">
<rect width="101" height="101" rx="30" fill="white"/>
</clipPath>
</defs>
</svg>