<svg width="264" height="101" viewBox="0 0 264 101" fill="none" xmlns="http://www.w3.org/2000/svg">
<path d="M145.912 24.53C145.912 25.574 145.75 26.546 145.426 27.446C145.138 28.274 144.724 29.12 144.184 29.984C143.68 30.848 143.014 31.802 142.186 32.846C141.934 33.134 141.664 33.458 141.376 33.818C141.088 34.178 140.746 34.556 140.35 34.952C139.99 35.348 139.612 35.78 139.216 36.248C138.856 36.716 138.478 37.22 138.082 37.76C137.722 38.192 137.254 38.768 136.678 39.488C136.138 40.172 135.526 40.946 134.842 41.81C134.77 41.99 134.734 42.098 134.734 42.134C134.734 42.206 134.716 42.278 134.68 42.35C134.608 42.494 134.5 42.674 134.356 42.89C134.248 43.142 134.194 43.268 134.194 43.268C131.746 42.296 129.514 41.558 127.498 41.054C125.482 40.55 123.664 40.298 122.044 40.298C121.9 40.298 121.234 40.406 120.046 40.622C117.346 41.09 114.862 42.044 112.594 43.484C113.386 41.396 114.862 39.686 117.022 38.354C117.922 37.742 118.858 37.238 119.83 36.842C120.838 36.446 121.864 36.104 122.908 35.816C124.024 35.564 125.158 35.402 126.31 35.33C126.958 35.294 127.66 35.24 128.416 35.168C128.596 35.168 128.74 35.186 128.848 35.222C128.956 35.222 129.1 35.24 129.28 35.276C129.568 35.312 129.874 35.348 130.198 35.384C130.558 35.42 130.972 35.474 131.44 35.546C132.088 35.582 133.582 35.996 135.922 36.788C136.822 35.672 137.542 34.79 138.082 34.142C138.658 33.458 139.054 32.936 139.27 32.576C140.53 30.704 141.16 29.084 141.16 27.716C141.16 27.14 140.854 26.402 140.242 25.502C139.234 24.062 137.254 23.342 134.302 23.342H130.792C130.612 23.378 130.468 23.396 130.36 23.396C130.252 23.396 130.162 23.396 130.09 23.396L129.658 24.314H130.198C130.378 24.314 130.486 24.296 130.522 24.26C131.602 24.26 132.16 24.242 132.196 24.206H132.52C135.328 24.206 137.272 24.584 138.352 25.34C139.252 25.88 139.774 26.852 139.918 28.256C139.846 28.328 139.792 28.562 139.756 28.958C139.756 29.03 139.738 29.084 139.702 29.12C139.702 29.156 139.702 29.21 139.702 29.282C139.666 29.462 139.504 29.93 139.216 30.686C138.604 32.378 137.416 33.512 135.652 34.088L136.192 33.332L136.138 33.386C136.174 33.314 136.192 33.242 136.192 33.17C136.228 33.062 136.264 32.972 136.3 32.9C136.408 32.648 136.462 32.414 136.462 32.198L136.516 32.09C136.516 30.506 134.464 29.714 130.36 29.714H127.552C127.408 29.75 127.282 29.768 127.174 29.768C127.102 29.768 127.03 29.768 126.958 29.768C126.85 29.912 126.598 30.326 126.202 31.01C124.042 34.322 121.738 35.978 119.29 35.978C119.146 35.978 118.93 35.942 118.642 35.87C116.806 35.294 115.888 34.25 115.888 32.738L115.942 32.684C115.942 31.64 116.518 30.794 117.67 30.146C117.85 30.074 117.994 30.02 118.102 29.984C118.21 29.912 118.354 29.876 118.534 29.876L118.588 29.822H118.75C120.73 29.822 121.864 30.74 122.152 32.576C122.332 32.396 122.548 32.198 122.8 31.982C123.052 31.73 123.286 31.46 123.502 31.172C123.574 31.1 123.646 30.992 123.718 30.848C123.79 30.704 123.898 30.542 124.042 30.362C124.042 30.218 124.15 30.038 124.366 29.822V29.714H124.204L124.096 29.768H123.448C121.792 29.768 120.208 29.552 118.696 29.12C116.716 28.508 115.402 27.608 114.754 26.42C114.394 25.736 114.214 24.872 114.214 23.828C114.214 22.172 114.826 20.732 116.05 19.508C116.59 21.632 118.066 23.036 120.478 23.72C121.99 24.116 124.114 24.314 126.85 24.314L126.904 24.26H127.012L127.39 23.396H127.174C121.702 23.396 118.444 22.28 117.4 20.048C117.004 19.184 116.806 18.212 116.806 17.132C116.806 13.244 118.984 10.364 123.34 8.492C124.024 8.204 124.672 7.988 125.284 7.844C125.896 7.7 126.49 7.61 127.066 7.574C127.174 7.574 127.282 7.556 127.39 7.52C127.858 7.52 128.11 7.502 128.146 7.466H129.226C129.262 7.502 129.55 7.52 130.09 7.52H130.198C130.378 7.52 130.63 7.556 130.954 7.628C131.278 7.7 131.71 7.79 132.25 7.898C134.05 8.402 135.76 9.158 137.38 10.166L138.892 8.924L140.242 10.166C140.026 10.49 139.792 10.724 139.54 10.868H139.594L138.622 11.84C138.226 12.128 137.794 12.506 137.326 12.974C136.066 14.234 134.77 15.782 133.438 17.618C134.23 17.69 135.418 17.744 137.002 17.78C137.902 17.78 138.91 17.96 140.026 18.32C143.95 19.364 145.912 21.434 145.912 24.53ZM132.52 15.08L132.79 14.81C132.142 13.514 131.134 12.47 129.766 11.678C128.434 10.85 127.066 10.436 125.662 10.436H125.446L125.014 10.544C124.906 10.58 124.78 10.598 124.636 10.598C124.528 10.598 124.384 10.616 124.204 10.652C121.864 11.192 120.622 12.344 120.478 14.108C120.514 15.8 121.774 16.898 124.258 17.402C125.266 17.618 126.112 17.726 126.796 17.726H129.172C129.28 17.726 129.388 17.726 129.496 17.726C129.64 17.726 129.784 17.708 129.928 17.672H130.63C130.738 17.492 130.864 17.294 131.008 17.078C131.152 16.862 131.332 16.628 131.548 16.376C131.62 16.304 131.71 16.178 131.818 15.998C131.962 15.818 132.07 15.674 132.142 15.566C132.214 15.494 132.268 15.422 132.304 15.35C132.376 15.278 132.448 15.188 132.52 15.08ZM136.138 33.44V33.386V33.44ZM134.788 41.864L134.842 41.81L134.788 41.864ZM158.861 39.002L153.515 43.268C151.643 41.648 149.429 40.532 146.873 39.92C147.701 38.588 148.565 37.688 149.465 37.22V15.188L149.141 13.514C149.141 13.478 149.123 13.46 149.087 13.46C149.087 13.424 149.087 13.388 149.087 13.352V13.406C149.051 13.334 149.033 13.208 149.033 13.028L148.925 12.866L148.871 12.812C148.871 12.704 148.853 12.614 148.817 12.542L148.763 12.434V11.732C148.979 11.84 149.141 11.912 149.249 11.948C149.357 11.948 149.465 11.948 149.573 11.948C150.833 11.948 152.813 10.868 155.513 8.708L155.783 8.924C155.639 9.212 155.513 9.554 155.405 9.95C155.297 10.346 155.171 10.796 155.027 11.3C154.775 12.308 154.649 13.082 154.649 13.622V36.68C155.081 36.896 155.657 37.274 156.377 37.814C156.305 37.742 156.341 37.742 156.485 37.814C156.665 37.994 156.773 38.12 156.809 38.192L156.971 38.354L157.781 37.598L158.861 39.002ZM180.313 38.354L176.911 43.106H176.857L176.803 43.16H176.587L176.533 43.214H176.371L176.317 43.268H175.885C175.021 43.268 174.121 42.872 173.185 42.08C172.825 41.72 172.501 41.378 172.213 41.054C171.925 40.766 171.691 40.442 171.511 40.082L167.839 43.214H167.515C165.967 43.214 164.455 42.764 162.979 41.864C162.259 41.36 161.665 40.82 161.197 40.244C160.765 39.668 160.459 39.02 160.279 38.3C160.135 37.832 160.063 37.166 160.063 36.302C160.063 33.458 161.701 30.92 164.977 28.688C164.905 28.58 164.743 28.4 164.491 28.148C164.275 27.86 163.933 27.464 163.465 26.96C163.177 26.636 162.853 26.276 162.493 25.88C162.169 25.448 161.791 24.98 161.359 24.476H161.413C161.053 24.26 160.495 23.738 159.739 22.91C162.331 21.974 164.401 20.57 165.949 18.698L166.219 19.022L166.273 19.13C166.453 19.31 166.705 19.634 167.029 20.102C167.353 20.534 167.605 20.894 167.785 21.182V21.128C168.397 21.92 169.027 22.316 169.675 22.316H169.567L169.837 22.208C169.909 22.28 169.981 22.316 170.053 22.316C170.773 22.316 171.871 21.344 173.347 19.4L173.401 19.292C173.473 19.184 173.527 19.094 173.563 19.022C173.635 18.95 173.815 18.77 174.103 18.482C174.103 18.806 174.121 18.986 174.157 19.022C174.121 19.022 174.139 19.094 174.211 19.238C174.319 19.346 174.445 19.472 174.589 19.616V19.562C175.525 20.714 176.425 21.29 177.289 21.29C177.685 21.29 178.369 21.128 179.341 20.804V21.236C179.341 22.784 178.567 24.008 177.019 24.908V36.086C177.019 36.77 177.271 37.328 177.775 37.76C178.279 38.156 178.909 38.372 179.665 38.408L179.719 38.354H180.313ZM169.999 38.57C170.575 38.57 171.007 38.462 171.295 38.246H171.349L171.403 38.192V25.34C170.899 25.34 170.359 24.962 169.783 24.206C168.991 25.214 168.001 25.718 166.813 25.718L166.705 25.772H165.571C165.499 25.772 165.391 25.772 165.247 25.772C165.139 25.772 165.031 25.754 164.923 25.718L170.971 32.576L169.621 33.764L166.273 30.146C165.913 30.83 165.661 31.442 165.517 31.982C165.373 32.486 165.301 32.936 165.301 33.332C165.301 34.736 165.751 35.942 166.651 36.95C167.623 38.03 168.739 38.57 169.999 38.57ZM197.241 20.372L197.565 20.534C197.493 21.794 196.971 22.856 195.999 23.72C195.063 24.548 193.965 24.962 192.705 24.962C191.049 24.962 189.879 24.458 189.195 23.45V35.978C189.519 36.158 189.933 36.248 190.437 36.248C190.473 36.284 190.635 36.356 190.923 36.464C191.247 36.536 191.715 36.68 192.327 36.896C192.687 37.04 192.993 37.202 193.245 37.382C193.533 37.526 193.767 37.706 193.947 37.922L195.351 36.248L196.647 37.274L191.733 43.322C189.249 41.234 186.513 40.19 183.525 40.19C182.517 40.19 181.725 40.514 181.149 41.162C181.509 39.434 182.319 38.138 183.579 37.274V24.962C183.579 24.854 183.561 24.728 183.525 24.584C183.525 24.44 183.525 24.26 183.525 24.044C183.417 23.828 183.363 23.522 183.363 23.126C183.183 22.694 183.093 22.388 183.093 22.208C183.057 22.172 183.003 21.992 182.931 21.668V20.966L183.417 21.452C183.489 21.524 183.831 21.56 184.443 21.56C185.775 21.56 187.071 21.254 188.331 20.642C189.591 20.03 190.617 19.184 191.409 18.104C192.957 20.12 194.379 21.128 195.675 21.128C195.927 21.128 196.449 20.876 197.241 20.372ZM219.776 38.786L214.592 43.592C212.9 43.052 211.64 41.936 210.812 40.244C210.668 39.956 210.47 39.434 210.218 38.678C209.966 37.886 209.642 36.806 209.246 35.438C209.102 35.078 208.94 34.646 208.76 34.142C208.58 33.602 208.31 32.954 207.95 32.198L206.762 33.008V36.95C206.834 37.022 206.888 37.058 206.924 37.058C206.996 37.058 207.068 37.076 207.14 37.112L207.194 37.166C207.266 37.202 207.338 37.238 207.41 37.274C207.482 37.31 207.554 37.346 207.626 37.382C207.806 37.49 207.986 37.616 208.166 37.76C208.382 37.868 208.58 37.994 208.76 38.138C208.94 38.282 209.102 38.462 209.246 38.678C209.39 38.858 209.552 39.074 209.732 39.326L205.304 43.484C203.756 41.504 201.722 40.496 199.202 40.46L199.148 40.514H198.662C198.662 39.218 199.4 38.156 200.876 37.328V14.324C200.876 13.712 200.462 13.028 199.634 12.272V11.516L200.12 12.002H200.444L200.498 12.056H200.606C202.226 12.056 204.512 10.886 207.464 8.546L207.734 8.816C207.554 9.104 207.464 9.338 207.464 9.518C207.32 9.662 207.248 9.86 207.248 10.112C206.924 10.508 206.762 11.246 206.762 12.326V23.072L213.242 18.32C214.142 20.66 215.618 23.162 217.67 25.826L212.486 29.174C212.846 29.786 213.188 30.434 213.512 31.118C213.836 31.802 214.142 32.468 214.43 33.116C214.61 33.584 214.772 34.016 214.916 34.412C215.06 34.808 215.222 35.222 215.402 35.654C215.906 36.842 216.338 37.652 216.698 38.084C217.094 38.516 217.58 38.732 218.156 38.732C218.732 38.732 219.128 38.678 219.344 38.57L219.506 38.408L219.776 38.786ZM211.892 27.284C211.712 27.032 211.424 26.618 211.028 26.042C210.668 25.43 210.2 24.62 209.624 23.612L206.762 25.556V30.686L211.892 27.284ZM237.927 26.744L237.873 27.014C237.441 27.23 236.577 27.716 235.281 28.472C234.021 29.192 232.293 30.2 230.097 31.496C229.773 31.676 229.413 31.91 229.017 32.198V36.248C230.133 36.428 231.159 36.662 232.095 36.95C233.067 37.238 233.967 37.58 234.795 37.976L236.091 36.626L237.441 37.868L232.527 43.268L231.987 42.998C231.231 42.602 230.493 42.224 229.773 41.864C229.053 41.54 228.225 41.288 227.289 41.108C225.705 40.784 224.337 40.622 223.185 40.622C222.753 40.622 222.321 40.658 221.889 40.73C221.457 40.766 221.025 40.82 220.593 40.892C220.665 40.712 220.737 40.568 220.809 40.46C220.881 40.316 220.953 40.208 221.025 40.136V40.19C221.277 39.794 221.475 39.47 221.619 39.218C221.799 38.966 221.907 38.822 221.943 38.786C222.195 38.462 222.681 38.03 223.401 37.49V24.422C223.401 23.882 223.113 22.982 222.537 21.722V20.966L223.023 21.452H223.347L223.401 21.506H223.563L223.725 21.56H223.941C226.785 21.56 229.989 20.372 233.553 17.996C233.733 18.644 233.967 19.346 234.255 20.102C234.543 20.858 234.939 21.704 235.443 22.64C235.911 23.468 236.343 24.242 236.739 24.962C237.171 25.646 237.567 26.24 237.927 26.744ZM230.745 25.718C230.493 25.25 230.259 24.764 230.043 24.26C229.827 23.756 229.629 23.252 229.449 22.748L229.017 22.856V29.768L231.933 27.878C231.789 27.662 231.609 27.392 231.393 27.068C231.213 26.708 230.997 26.258 230.745 25.718ZM256.659 21.56C256.659 22.928 256.245 24.062 255.417 24.962C254.589 25.862 253.527 26.312 252.231 26.312C251.187 26.312 250.179 25.844 249.207 24.908L247.749 26.42V36.14C247.821 36.176 247.929 36.212 248.073 36.248C248.217 36.284 248.379 36.32 248.559 36.356H248.505C249.225 36.428 249.963 36.842 250.719 37.598L251.691 36.626L252.879 37.922L247.317 43.322C245.301 41.414 243.411 40.46 241.647 40.46C241.287 40.46 240.963 40.514 240.675 40.622C240.423 40.694 240.153 40.766 239.865 40.838L239.163 41.108C239.163 39.992 239.721 38.876 240.837 37.76C241.053 37.544 241.233 37.382 241.377 37.274C241.557 37.166 241.701 37.076 241.809 37.004L241.701 37.058L241.863 36.896H242.025L242.079 36.842V25.664C241.827 25.304 241.539 25.016 241.215 24.8C240.927 24.548 240.585 24.332 240.189 24.152C240.081 24.116 239.919 24.062 239.703 23.99C239.631 23.954 239.469 23.918 239.217 23.882C239.001 23.81 238.839 23.756 238.731 23.72C240.963 22.424 242.709 20.552 243.969 18.104C245.877 19.076 247.137 20.804 247.749 23.288L248.235 22.64C248.415 22.46 248.595 22.28 248.775 22.1C248.955 21.884 249.153 21.65 249.369 21.398C250.053 20.714 250.809 19.724 251.637 18.428V18.266L252.069 18.212C252.717 20.264 253.671 21.29 254.931 21.29C255.363 21.29 255.939 20.966 256.659 20.318V21.56ZM145.534 57.628L145.858 57.844C145.822 58.348 145.678 58.852 145.426 59.356C145.174 59.86 144.778 60.382 144.238 60.922C143.41 61.786 142.51 62.47 141.538 62.974V62.92C141.322 63.064 141.124 63.172 140.944 63.244C140.8 63.28 140.674 63.316 140.566 63.352V93.268H140.242C138.478 93.268 136.588 91.45 134.572 87.814H134.626C134.266 87.274 133.888 86.608 133.492 85.816C133.132 84.988 132.592 83.872 131.872 82.468C131.692 82.144 131.512 81.802 131.332 81.442C131.152 81.046 130.972 80.65 130.792 80.254C128.92 79.462 127.264 79.066 125.824 79.066C123.916 79.066 122.53 79.354 121.666 79.93V85.114H121.72L121.828 85.06H122.152C123.34 85.06 124.474 85.258 125.554 85.654C126.634 86.014 127.696 86.554 128.74 87.274L129.388 86.41L130.576 87.598L126.256 93.268C123.736 91.684 121.378 90.892 119.182 90.892C117.562 90.892 115.996 91.252 114.484 91.972V91.918C114.268 92.062 114.088 92.17 113.944 92.242C113.944 92.242 113.782 92.296 113.458 92.404C113.17 92.548 112.918 92.656 112.702 92.728C113.746 88.912 116.05 86.464 119.614 85.384V78.148C119.542 78.112 119.47 78.094 119.398 78.094C119.326 78.058 119.236 78.004 119.128 77.932H119.02C118.768 77.932 118.552 78.094 118.372 78.418C118.228 78.706 118.156 78.994 118.156 79.282L118.21 79.336V79.552V79.93C117.274 79.93 116.482 79.552 115.834 78.796C115.186 78.04 114.862 77.158 114.862 76.15C114.862 73.954 115.654 72.532 117.238 71.884C117.382 71.848 117.652 71.794 118.048 71.722C118.444 71.65 118.966 71.578 119.614 71.506V62.65H119.506C119.326 62.794 119.092 62.902 118.804 62.974C118.552 63.01 118.3 63.064 118.048 63.136C117.94 63.172 117.814 63.19 117.67 63.19C117.562 63.19 117.472 63.226 117.4 63.298C115.888 64.054 115.078 65.044 114.97 66.268H114.592L114.7 66.376C113.944 66.232 113.566 65.458 113.566 64.054C113.566 62.11 114.25 60.4 115.618 58.924C116.95 57.376 118.606 56.602 120.586 56.602C122.53 56.602 124.186 57.232 125.554 58.492C126.454 59.32 127.642 60.814 129.118 62.974C129.514 63.694 129.982 64.594 130.522 65.674C131.098 66.718 131.854 68.086 132.79 69.778C133.33 70.138 134.284 70.318 135.652 70.318C136.012 70.318 136.21 70.3 136.246 70.264C137.11 70.264 137.65 70.21 137.866 70.102H138.082L138.514 69.994H138.622L138.568 63.676H138.46L138.352 63.73H138.082C136.282 63.73 135.004 63.37 134.248 62.65L133.222 63.514L131.926 62.218L137.866 56.548C139.522 57.844 141.07 58.492 142.51 58.492C143.41 58.492 144.418 58.204 145.534 57.628ZM126.094 77.068C127.246 77.068 128.398 77.23 129.55 77.554C129.334 77.122 129.028 76.492 128.632 75.664C128.236 74.8 127.732 73.702 127.12 72.37C126.076 70.066 125.266 68.338 124.69 67.186C123.502 65.026 122.494 63.748 121.666 63.352V77.824C123.502 77.32 124.978 77.068 126.094 77.068ZM135.004 74.962C135.688 76.474 136.318 77.788 136.894 78.904C137.506 79.984 138.082 80.92 138.622 81.712L138.568 72.046C138.352 72.154 138.064 72.226 137.704 72.262C137.38 72.298 137.002 72.316 136.57 72.316H135.112C134.608 72.316 134.14 72.244 133.708 72.1C133.816 72.352 133.978 72.712 134.194 73.18C134.41 73.648 134.68 74.242 135.004 74.962ZM164.099 76.744L164.045 77.014C163.613 77.23 162.749 77.716 161.453 78.472C160.193 79.192 158.465 80.2 156.269 81.496C155.945 81.676 155.585 81.91 155.189 82.198V86.248C156.305 86.428 157.331 86.662 158.267 86.95C159.239 87.238 160.139 87.58 160.967 87.976L162.263 86.626L163.613 87.868L158.699 93.268L158.159 92.998C157.403 92.602 156.665 92.224 155.945 91.864C155.225 91.54 154.397 91.288 153.461 91.108C151.877 90.784 150.509 90.622 149.357 90.622C148.925 90.622 148.493 90.658 148.061 90.73C147.629 90.766 147.197 90.82 146.765 90.892C146.837 90.712 146.909 90.568 146.981 90.46C147.053 90.316 147.125 90.208 147.197 90.136V90.19C147.449 89.794 147.647 89.47 147.791 89.218C147.971 88.966 148.079 88.822 148.115 88.786C148.367 88.462 148.853 88.03 149.573 87.49V74.422C149.573 73.882 149.285 72.982 148.709 71.722V70.966L149.195 71.452H149.519L149.573 71.506H149.735L149.897 71.56H150.113C152.957 71.56 156.161 70.372 159.725 67.996C159.905 68.644 160.139 69.346 160.427 70.102C160.715 70.858 161.111 71.704 161.615 72.64C162.083 73.468 162.515 74.242 162.911 74.962C163.343 75.646 163.739 76.24 164.099 76.744ZM156.917 75.718C156.665 75.25 156.431 74.764 156.215 74.26C155.999 73.756 155.801 73.252 155.621 72.748L155.189 72.856V79.768L158.105 77.878C157.961 77.662 157.781 77.392 157.565 77.068C157.385 76.708 157.169 76.258 156.917 75.718ZM196.925 71.182L197.195 71.398C197.051 73.018 196.277 74.242 194.873 75.07V88.192C194.873 88.732 195.053 89.254 195.413 89.758C195.413 89.794 195.611 90.1 196.007 90.676C195.359 90.676 194.981 90.658 194.873 90.622H194.765C192.173 90.622 189.581 91.216 186.989 92.404C186.773 92.476 186.503 92.584 186.179 92.728C185.891 92.908 185.513 93.106 185.045 93.322C183.965 93.25 182.903 92.854 181.859 92.134C180.851 91.45 180.041 90.622 179.429 89.65C178.529 90.226 177.755 90.694 177.107 91.054C176.819 91.162 176.657 91.234 176.621 91.27L176.513 91.378L176.405 91.432C176.333 91.468 176.189 91.558 175.973 91.702V91.648C175.829 91.756 175.559 91.954 175.163 92.242C174.767 92.53 174.299 92.872 173.759 93.268C172.715 92.332 171.689 91.612 170.681 91.108C169.673 90.604 168.611 90.352 167.495 90.352H167.387L167.279 90.406C167.135 90.406 166.955 90.424 166.739 90.46C166.559 90.496 166.379 90.55 166.199 90.622C166.559 89.362 167.297 88.318 168.413 87.49L168.467 87.382H168.521V75.718C167.981 74.638 167.333 74.098 166.577 74.098H166.469L166.307 74.044H165.875L165.767 73.99H165.605L165.173 73.72L170.627 68.266C171.707 68.662 172.607 69.31 173.327 70.21C174.047 71.11 174.407 72.118 174.407 73.234V86.626C174.587 86.77 174.875 86.842 175.271 86.842C175.451 86.914 175.559 86.968 175.595 87.004C175.631 87.004 175.739 87.04 175.919 87.112C176.315 87.292 176.675 87.472 176.999 87.652C177.323 87.832 177.593 88.012 177.809 88.192L178.025 87.976C178.061 87.94 178.097 87.904 178.133 87.868C178.205 87.832 178.259 87.796 178.295 87.76C178.547 87.688 178.781 87.58 178.997 87.436V75.394C178.997 74.89 178.691 74.44 178.079 74.044C177.467 73.612 176.837 73.396 176.189 73.396V72.964L181.697 68.212C183.173 68.968 184.109 69.85 184.505 70.858C184.541 70.93 184.559 71.02 184.559 71.128C184.595 71.236 184.649 71.344 184.721 71.452C184.757 71.56 184.811 71.758 184.883 72.046V86.14C184.883 87.4 185.477 88.318 186.665 88.894C186.773 88.966 186.917 89.038 187.097 89.11C187.277 89.146 187.439 89.2 187.583 89.272C187.583 89.272 187.583 89.29 187.583 89.326C187.619 89.326 187.655 89.326 187.691 89.326H188.285C188.933 89.326 189.257 88.984 189.257 88.3V75.232C188.753 75.088 188.213 74.674 187.637 73.99L186.989 74.26L186.179 72.964L192.119 68.59C193.019 70.462 194.045 71.452 195.197 71.56C195.233 71.596 195.413 71.614 195.737 71.614C195.809 71.614 195.881 71.596 195.953 71.56H196.007V71.506C196.079 71.47 196.151 71.452 196.223 71.452C196.295 71.452 196.403 71.434 196.547 71.398C196.619 71.326 196.745 71.254 196.925 71.182ZM218.54 68.806L218.756 69.076C217.82 71.956 215.84 74.944 212.816 78.04L217.892 77.932C217.892 77.968 217.874 78.04 217.838 78.148C217.838 78.256 217.838 78.328 217.838 78.364C217.802 78.436 217.784 78.526 217.784 78.634L217.73 78.688V78.796L217.622 78.904V79.012L217.568 79.12C217.568 79.192 217.55 79.246 217.514 79.282C217.514 79.318 217.514 79.354 217.514 79.39V79.336C217.478 79.444 217.442 79.588 217.406 79.768C217.37 79.912 217.352 79.966 217.352 79.93V89.11C217.352 89.182 217.37 89.236 217.406 89.272V89.434L217.46 89.542V89.488C217.496 89.524 217.514 89.56 217.514 89.596C217.514 89.596 217.532 89.686 217.568 89.866L217.514 89.758C217.442 89.686 217.46 89.74 217.568 89.92C217.676 90.1 217.784 90.28 217.892 90.46L218.108 90.892C217.712 90.892 217.478 90.874 217.406 90.838H217.46C217.424 90.802 217.37 90.784 217.298 90.784C216.866 90.784 216.506 90.784 216.218 90.784C215.93 90.748 215.696 90.676 215.516 90.568C214.976 90.568 214.652 90.55 214.544 90.514H214.22C211.484 90.514 209.234 91.45 207.47 93.322L205.904 91.756C205.616 91.504 205.346 91.306 205.094 91.162C204.842 91.054 204.554 91 204.23 91C204.014 90.892 203.708 90.838 203.312 90.838C201.656 90.838 200.504 91.63 199.856 93.214H198.29C198.578 91.954 199.082 90.676 199.802 89.38C200.522 88.048 201.494 86.626 202.718 85.114L202.934 84.898C203.042 84.79 203.168 84.646 203.312 84.466C203.492 84.286 203.69 84.088 203.906 83.872L200.342 83.71L200.72 83.332L200.666 83.494C200.99 83.062 201.152 82.612 201.152 82.144L201.206 82.036L201.152 72.64C201.152 72.604 201.134 72.586 201.098 72.586C201.098 72.55 201.098 72.514 201.098 72.478V72.532C201.062 72.496 201.044 72.406 201.044 72.262L200.882 71.884V71.83C200.81 71.758 200.774 71.65 200.774 71.506C200.774 71.362 200.774 71.2 200.774 71.02C201.134 71.344 201.512 71.506 201.908 71.506C202.16 71.65 202.79 71.722 203.798 71.722C203.834 71.758 204.014 71.776 204.338 71.776C205.994 71.776 207.596 71.362 209.144 70.534C209.288 70.462 210.008 69.778 211.304 68.482C212.456 69.814 213.536 70.48 214.544 70.48C215.588 70.48 216.434 69.958 217.082 68.914L218.54 68.806ZM211.736 88.732L211.79 88.678V81.874L211.682 81.766H208.928L206.12 84.574C205.868 84.826 205.58 85.15 205.256 85.546C204.932 85.906 204.536 86.32 204.068 86.788C204.5 86.716 204.878 86.662 205.202 86.626C205.526 86.554 205.778 86.518 205.958 86.518C207.83 86.518 209.432 87.346 210.764 89.002L210.98 88.894C210.98 88.894 211.016 88.894 211.088 88.894C211.196 88.858 211.34 88.804 211.52 88.732H211.736ZM210.872 77.23C212.096 75.934 212.996 74.98 213.572 74.368C212.96 74.62 212.312 74.746 211.628 74.746C210.584 74.746 209.396 74.224 208.064 73.18C207.956 73.216 207.884 73.252 207.848 73.288H207.632C207.416 73.396 207.218 73.45 207.038 73.45V80.254H207.632C207.92 80.074 208.316 79.732 208.82 79.228C209.36 78.724 210.044 78.058 210.872 77.23Z" fill="black"/>
<g clip-path="url(#clip0_25_143)">
<rect width="101" height="101" rx="30" fill="black"/>
<path d="M81.8466 76.488L81.7506 76.872C80.9186 77.384 79.8946 78.088 78.6786 78.984C77.5266 79.816 76.2146 80.776 74.7426 81.864C73.7826 82.504 72.5986 83.752 71.1906 85.608L70.7106 85.128L70.6146 85.032L70.4226 84.84L70.2306 84.744L69.9426 84.456L69.8466 84.264C66.3266 80.808 63.3826 78.44 61.0146 77.16L65.1426 72.84V55.08H53.5266V72.84L54.3906 71.88L57.0786 74.184L46.0386 85.128C41.4946 82.248 36.8866 80.808 32.2146 80.808C27.9906 80.808 24.2146 82.024 20.8866 84.456C21.5906 82.152 22.7106 80.168 24.2466 78.504C25.8466 76.84 27.7666 75.432 30.0066 74.28C31.9906 73.384 34.0066 72.712 36.0546 72.264C38.1666 71.752 40.3746 71.496 42.6786 71.496C45.2386 71.496 47.7346 71.88 50.1666 72.648V25.896C49.0786 25.512 48.5346 24.52 48.5346 22.92C48.5346 20.552 49.6866 19.368 51.9906 19.368C52.8866 19.368 53.6546 19.752 54.2946 20.52C54.9986 21.224 55.3506 22.024 55.3506 22.92C55.3506 24.456 54.7426 25.512 53.5266 26.088V45.384H65.1426V30.888C64.9506 30.888 64.8226 30.824 64.7586 30.696H64.8546C64.6626 30.568 64.4066 30.408 64.0866 30.216C63.7666 30.024 63.4466 29.768 63.1266 29.448H63.2226C63.0946 29.384 62.9026 29.224 62.6466 28.968L61.0146 29.928L59.4786 27.336L70.2306 20.04C73.6226 24.008 76.5986 25.992 79.1586 25.992H79.3506C79.4786 25.928 79.9266 25.768 80.6946 25.512C80.9506 25.384 81.3666 25.32 81.9426 25.32C80.9186 27.24 79.7666 28.744 78.4866 29.832C78.2306 29.96 77.9746 30.12 77.7186 30.312C77.4626 30.44 77.1746 30.632 76.8546 30.888H76.9506C76.7586 31.08 76.6626 31.176 76.6626 31.176L75.9906 31.368V72.84L78.2946 75.24L80.2146 74.088L81.8466 76.488ZM49.0146 28.296L48.1506 29.16V29.352C47.5106 29.992 47.1906 31.592 47.1906 34.152V61.128C47.1906 62.152 46.7106 63.528 45.7506 65.256C45.2386 66.152 44.5666 66.984 43.7346 67.752C42.9666 68.52 42.1026 69.192 41.1426 69.768C40.1826 70.344 39.1586 70.792 38.0706 71.112C37.0466 71.432 36.0226 71.592 34.9986 71.592H34.5186L34.4226 71.496H33.4626L34.4226 70.536C34.5506 70.472 34.7746 70.28 35.0946 69.96L35.7666 68.616V68.712C35.7666 68.712 35.8626 68.52 36.0546 68.136C36.3106 67.688 36.5026 67.336 36.6306 67.08C36.6306 66.888 36.6626 66.76 36.7266 66.696V54.696H33.4626L32.5026 55.08C32.4386 55.08 32.3746 55.112 32.3106 55.176C32.2466 55.176 32.1826 55.176 32.1186 55.176C31.2866 55.752 30.8706 56.744 30.8706 58.152L30.9666 58.248V59.592C30.4546 59.4 29.9426 59.112 29.4306 58.728C28.9826 58.28 28.5346 57.8 28.0866 57.288C27.7026 56.776 27.3506 56.264 27.0306 55.752C26.7746 55.24 26.6466 54.76 26.6466 54.312C26.5186 53.928 26.4546 53.416 26.4546 52.776C26.4546 51.88 26.6146 50.984 26.9346 50.088C27.3186 49.192 27.8306 48.392 28.4706 47.688C29.1106 46.92 29.8146 46.312 30.5826 45.864C31.3506 45.416 32.1826 45.192 33.0786 45.192L36.7266 45V36.84C37.7506 34.216 39.7986 32.008 42.8706 30.216C44.8546 28.936 46.9026 28.296 49.0146 28.296ZM47.8626 23.304L48.1506 23.88C46.8706 25.8 45.2066 27.464 43.1586 28.872C41.1746 30.216 39.1906 30.92 37.2066 30.984C37.0786 31.048 36.6306 31.08 35.8626 31.08L35.7666 31.176H35.4786C34.3266 31.176 32.5026 30.728 30.0066 29.832C27.6386 28.936 26.0386 28.488 25.2066 28.488L25.0146 28.584H24.3426C24.2786 28.648 24.0866 28.68 23.7666 28.68C23.0626 28.744 22.4226 29.032 21.8466 29.544C21.2706 29.992 20.6626 30.76 20.0226 31.848V30.504L19.9266 30.408V30.024L19.8306 29.832V29.352C19.8306 26.728 20.8226 24.584 22.8066 22.92C24.8546 21.256 27.2546 20.424 30.0066 20.424C32.7586 20.424 35.3506 21 37.7826 22.152C38.0386 22.28 38.2306 22.344 38.3586 22.344H38.2626C38.5826 22.472 38.8066 22.568 38.9346 22.632C39.1266 22.696 39.2866 22.76 39.4146 22.824H39.3186C39.5746 22.952 39.8306 23.048 40.0866 23.112C40.3426 23.176 41.0146 23.4 42.1026 23.784H42.2946C42.6786 23.848 43.0306 23.912 43.3506 23.976C43.6706 23.976 43.9586 23.976 44.2146 23.976C45.6866 23.976 46.6786 23.816 47.1906 23.496C47.2546 23.432 47.3826 23.4 47.5746 23.4C47.6386 23.4 47.6706 23.4 47.6706 23.4C47.7346 23.336 47.7986 23.304 47.8626 23.304Z" fill="white"/>
</g>
<rect x="2" y="2" width="97" height="97" rx="28" stroke="black" stroke-width="4"/>
<defs>
<clipPath id="clip0_25_143">
<rect width="101" height="101" rx="30" fill="white"/>
</clipPath>
</defs>
</svg>
