<svg width="101" height="101" viewBox="0 0 101 101" fill="none" xmlns="http://www.w3.org/2000/svg">
<g clip-path="url(#clip0_32_144)">
<rect width="101" height="101" rx="30" fill="black"/>
<path d="M81.8466 76.488L81.7506 76.872C80.9186 77.384 79.8946 78.088 78.6786 78.984C77.5266 79.816 76.2146 80.776 74.7426 81.864C73.7826 82.504 72.5986 83.752 71.1906 85.608L70.7106 85.128L70.6146 85.032L70.4226 84.84L70.2306 84.744L69.9426 84.456L69.8466 84.264C66.3266 80.808 63.3826 78.44 61.0146 77.16L65.1426 72.84V55.08H53.5266V72.84L54.3906 71.88L57.0786 74.184L46.0386 85.128C41.4946 82.248 36.8866 80.808 32.2146 80.808C27.9906 80.808 24.2146 82.024 20.8866 84.456C21.5906 82.152 22.7106 80.168 24.2466 78.504C25.8466 76.84 27.7666 75.432 30.0066 74.28C31.9906 73.384 34.0066 72.712 36.0546 72.264C38.1666 71.752 40.3746 71.496 42.6786 71.496C45.2386 71.496 47.7346 71.88 50.1666 72.648V25.896C49.0786 25.512 48.5346 24.52 48.5346 22.92C48.5346 20.552 49.6866 19.368 51.9906 19.368C52.8866 19.368 53.6546 19.752 54.2946 20.52C54.9986 21.224 55.3506 22.024 55.3506 22.92C55.3506 24.456 54.7426 25.512 53.5266 26.088V45.384H65.1426V30.888C64.9506 30.888 64.8226 30.824 64.7586 30.696H64.8546C64.6626 30.568 64.4066 30.408 64.0866 30.216C63.7666 30.024 63.4466 29.768 63.1266 29.448H63.2226C63.0946 29.384 62.9026 29.224 62.6466 28.968L61.0146 29.928L59.4786 27.336L70.2306 20.04C73.6226 24.008 76.5986 25.992 79.1586 25.992H79.3506C79.4786 25.928 79.9266 25.768 80.6946 25.512C80.9506 25.384 81.3666 25.32 81.9426 25.32C80.9186 27.24 79.7666 28.744 78.4866 29.832C78.2306 29.96 77.9746 30.12 77.7186 30.312C77.4626 30.44 77.1746 30.632 76.8546 30.888H76.9506C76.7586 31.08 76.6626 31.176 76.6626 31.176L75.9906 31.368V72.84L78.2946 75.24L80.2146 74.088L81.8466 76.488ZM49.0146 28.296L48.1506 29.16V29.352C47.5106 29.992 47.1906 31.592 47.1906 34.152V61.128C47.1906 62.152 46.7106 63.528 45.7506 65.256C45.2386 66.152 44.5666 66.984 43.7346 67.752C42.9666 68.52 42.1026 69.192 41.1426 69.768C40.1826 70.344 39.1586 70.792 38.0706 71.112C37.0466 71.432 36.0226 71.592 34.9986 71.592H34.5186L34.4226 71.496H33.4626L34.4226 70.536C34.5506 70.472 34.7746 70.28 35.0946 69.96L35.7666 68.616V68.712C35.7666 68.712 35.8626 68.52 36.0546 68.136C36.3106 67.688 36.5026 67.336 36.6306 67.08C36.6306 66.888 36.6626 66.76 36.7266 66.696V54.696H33.4626L32.5026 55.08C32.4386 55.08 32.3746 55.112 32.3106 55.176C32.2466 55.176 32.1826 55.176 32.1186 55.176C31.2866 55.752 30.8706 56.744 30.8706 58.152L30.9666 58.248V59.592C30.4546 59.4 29.9426 59.112 29.4306 58.728C28.9826 58.28 28.5346 57.8 28.0866 57.288C27.7026 56.776 27.3506 56.264 27.0306 55.752C26.7746 55.24 26.6466 54.76 26.6466 54.312C26.5186 53.928 26.4546 53.416 26.4546 52.776C26.4546 51.88 26.6146 50.984 26.9346 50.088C27.3186 49.192 27.8306 48.392 28.4706 47.688C29.1106 46.92 29.8146 46.312 30.5826 45.864C31.3506 45.416 32.1826 45.192 33.0786 45.192L36.7266 45V36.84C37.7506 34.216 39.7986 32.008 42.8706 30.216C44.8546 28.936 46.9026 28.296 49.0146 28.296ZM47.8626 23.304L48.1506 23.88C46.8706 25.8 45.2066 27.464 43.1586 28.872C41.1746 30.216 39.1906 30.92 37.2066 30.984C37.0786 31.048 36.6306 31.08 35.8626 31.08L35.7666 31.176H35.4786C34.3266 31.176 32.5026 30.728 30.0066 29.832C27.6386 28.936 26.0386 28.488 25.2066 28.488L25.0146 28.584H24.3426C24.2786 28.648 24.0866 28.68 23.7666 28.68C23.0626 28.744 22.4226 29.032 21.8466 29.544C21.2706 29.992 20.6626 30.76 20.0226 31.848V30.504L19.9266 30.408V30.024L19.8306 29.832V29.352C19.8306 26.728 20.8226 24.584 22.8066 22.92C24.8546 21.256 27.2546 20.424 30.0066 20.424C32.7586 20.424 35.3506 21 37.7826 22.152C38.0386 22.28 38.2306 22.344 38.3586 22.344H38.2626C38.5826 22.472 38.8066 22.568 38.9346 22.632C39.1266 22.696 39.2866 22.76 39.4146 22.824H39.3186C39.5746 22.952 39.8306 23.048 40.0866 23.112C40.3426 23.176 41.0146 23.4 42.1026 23.784H42.2946C42.6786 23.848 43.0306 23.912 43.3506 23.976C43.6706 23.976 43.9586 23.976 44.2146 23.976C45.6866 23.976 46.6786 23.816 47.1906 23.496C47.2546 23.432 47.3826 23.4 47.5746 23.4C47.6386 23.4 47.6706 23.4 47.6706 23.4C47.7346 23.336 47.7986 23.304 47.8626 23.304Z" fill="white"/>
</g>
<rect x="2" y="2" width="97" height="97" rx="28" stroke="black" stroke-width="4"/>
<defs>
<clipPath id="clip0_32_144">
<rect width="101" height="101" rx="30" fill="white"/>
</clipPath>
</defs>
</svg>
